<?xml version="1.0" encoding="UTF-8"?>
<svg version="1.1" xmlns="http://www.w3.org/2000/svg" width="626" height="626">
<path d="M0 0 C206.58 0 413.16 0 626 0 C626 206.58 626 413.16 626 626 C419.42 626 212.84 626 0 626 C0 419.42 0 212.84 0 0 Z " fill="#FEFEFE" transform="translate(0,0)"/>
<path d="M0 0 C22.84554141 -0.14070403 45.69101048 -0.24623104 68.53689861 -0.31087303 C79.14673613 -0.34169686 89.75630306 -0.38365565 100.3659668 -0.45263672 C109.62273842 -0.51279252 118.8793139 -0.55123231 128.13627559 -0.56453097 C133.02936256 -0.57229403 137.92188885 -0.59029386 142.81479454 -0.63438034 C182.5936799 -0.97879524 182.5936799 -0.97879524 199 6 C199.68077795 6.28387196 200.3615559 6.56774391 201.06296349 6.86021805 C223.57163759 16.41222659 241.100673 34.98372993 250.4375 57.4375 C259.53280387 82.04377534 257.89220796 108.32012633 247 132 C239.51392304 147.94950285 226.71373511 162.76120139 211 171 C210.34 171 209.68 171 209 171 C213.79726863 177.04504305 218.7261139 182.87054269 224 188.5 C228.47924975 193.28308303 232.68451837 198.20815465 236.7890625 203.3203125 C239.1093495 206.13253315 241.53071134 208.81797263 244 211.5 C248.09351091 215.94727112 251.92442499 220.54717463 255.71875 225.25 C258.06718968 228.08099578 260.50909902 230.79383598 263 233.5 C275.60463122 247.20926244 275.60463122 247.20926244 278 252 C272.00845663 252.12507236 266.01769911 252.21502369 260.02514648 252.2746582 C257.99343604 252.29955858 255.96181284 252.33349189 253.93041992 252.37719727 C234.25219597 252.78948443 219.32620262 250.0516565 204.12890625 236.42578125 C198.80647387 231.25098916 194.00768121 225.74944427 189.37890625 219.953125 C186.64616986 216.56076259 183.83648919 213.2431762 181 209.9375 C180.48791992 209.34050293 179.97583984 208.74350586 179.44824219 208.12841797 C176.44929892 204.64623719 173.40482699 201.21244067 170.3125 197.8125 C167.3208184 194.52057795 164.47475577 191.15408693 161.6875 187.6875 C157.79808842 182.8749471 153.6725675 178.3540148 149.4465332 173.84106445 C145.50655883 169.60984457 141.84364549 165.20347697 138.22265625 160.6953125 C135.04978394 156.8477169 131.67845436 153.19430904 128.30859375 149.51953125 C120 140.45177665 120 140.45177665 120 138 C120.60197708 137.99413376 121.20395416 137.98826752 121.82417297 137.98222351 C128.13576489 137.91788513 134.44686583 137.83336517 140.75805664 137.73754883 C143.10792535 137.70446118 145.45787044 137.6763799 147.80786133 137.65356445 C151.20166329 137.61972005 154.59477529 137.56738993 157.98828125 137.51171875 C159.54365349 137.50213387 159.54365349 137.50213387 161.13044739 137.49235535 C174.46862324 137.22839195 187.10972333 133.21503689 197 124 C199.70464855 120.85766973 201.89650333 117.56879654 204 114 C204.51046875 113.15050781 205.0209375 112.30101562 205.546875 111.42578125 C210.66237062 101.35285308 210.64443609 88.66178602 208.30078125 77.7421875 C207.39365104 75.30020827 206.3597837 73.21859446 205 71 C204.55269531 70.22785156 204.10539063 69.45570313 203.64453125 68.66015625 C196.51419648 57.17133266 187.22168622 50.69571051 174.32446289 46.84033203 C165.69116135 44.87701207 156.5220098 45.4721443 147.72532654 45.5141449 C143.96511194 45.53155625 140.20565605 45.52381783 136.44543457 45.5098877 C128.46356828 45.48466385 120.48187602 45.4898226 112.5 45.5 C103.24259816 45.51180378 93.98551342 45.51023182 84.72813416 45.47593689 C81.04286306 45.46889168 77.35819691 45.48545631 73.67297363 45.50305176 C52.0326128 45.49896613 52.0326128 45.49896613 42 41 C41.34895294 40.70916534 40.69790588 40.41833069 40.02713013 40.11868286 C31.33366862 35.8143071 24.38549902 29.87623857 18.1640625 22.546875 C16.38652968 20.45490496 14.58794237 18.38783323 12.7734375 16.328125 C11.59893802 14.98960116 10.42445904 13.65105932 9.25 12.3125 C8.68265137 11.67062744 8.11530273 11.02875488 7.53076172 10.36743164 C6.9895166 9.74731201 6.44827148 9.12719238 5.890625 8.48828125 C5.40625977 7.93696533 4.92189453 7.38564941 4.42285156 6.81762695 C2.73240026 4.65815372 1.39469795 2.35870697 0 0 Z " fill="#101125" transform="translate(190,187)"/>
<path d="M0 0 C17.45577991 -0.14070165 34.91138067 -0.24622938 52.36759949 -0.31087303 C60.47442683 -0.34169764 68.58090008 -0.38365716 76.6875 -0.45263672 C83.76037004 -0.51279107 90.8329834 -0.55123177 97.90610218 -0.56453097 C101.64494963 -0.57229455 105.38306337 -0.59029527 109.12167358 -0.63438034 C133.99018041 -0.91623563 151.58615715 2.09860176 170 20 C172.44041486 22.58066859 174.71327436 25.28314171 177 28 C178.02049191 29.17200599 179.04278673 30.3424434 180.06640625 31.51171875 C181.16942253 32.77851376 182.27228615 34.04544172 183.375 35.3125 C183.91165283 35.92367676 184.44830566 36.53485352 185.0012207 37.16455078 C187.23953409 39.75431707 188.90657341 41.71972022 190 45 C160.3 45 130.6 45 100 45 C107.29868208 53.96286254 107.29868208 53.96286254 115 62.5 C119.48303623 67.27934114 123.68480832 72.20851578 127.7890625 77.3203125 C130.1093495 80.13253315 132.53071134 82.81797263 135 85.5 C138.27418423 89.05670244 141.40642433 92.67161811 144.4375 96.4375 C147.65943101 100.43223986 151.00655495 104.24554349 154.5 108 C158.78955113 112.61004336 162.80410672 117.37782956 166.75390625 122.28515625 C169.0883059 125.10673495 171.51990598 127.80590712 174 130.5 C178.09351091 134.94727112 181.92442499 139.54717463 185.71875 144.25 C188.86194258 148.03905407 192.20158595 151.63269352 195.53515625 155.25390625 C198.69966916 158.77950462 201.64936092 162.45726967 204.6171875 166.1484375 C207.78471255 169.93908223 211.1358595 173.54458256 214.54663086 177.11694336 C218 180.78796441 218 180.78796441 218 183 C212.11422513 183.09986957 206.22895785 183.17193547 200.3425293 183.21972656 C198.34569695 183.23967719 196.34892176 183.26684772 194.35229492 183.30175781 C173.64978756 183.65431742 157.98810979 180.14685969 142.3671875 165.44921875 C139.09133111 162.05984258 136.14751902 158.4591025 133.22265625 154.765625 C130.31977934 151.15360944 127.22188663 147.74392953 124.10546875 144.31640625 C119.08155179 138.78916552 114.23227564 133.11082291 109.375 127.4375 C97.45111738 113.47203723 97.45111738 113.47203723 85.25 99.75 C82.24239392 96.43560714 79.37570304 93.04340917 76.5625 89.5625 C72.70174863 84.788597 68.62562925 80.26611572 64.46875 75.75 C61.27118704 72.18815771 58.28611657 68.47434167 55.28125 64.75 C52.93281032 61.91900422 50.49090098 59.20616402 48 56.5 C43.88621091 52.0301488 40.02912703 47.40955107 36.21484375 42.68359375 C33.33166239 39.19021528 30.2858436 35.86171816 27.234375 32.515625 C24.98818434 29.98669705 22.86468782 27.38950086 20.75 24.75 C16.55347839 19.54512691 12.05669181 14.67821271 7.42871094 9.85839844 C6.89793945 9.29926758 6.36716797 8.74013672 5.8203125 8.1640625 C5.34867676 7.67373535 4.87704102 7.1834082 4.39111328 6.67822266 C2.66259566 4.59295938 1.37455343 2.3298507 0 0 Z " fill="#101125" transform="translate(158,256)"/>
<path d="M0 0 C2 0.1875 2 0.1875 4 1 C4.99 2.485 4.99 2.485 6 4 C-24.03 4 -54.06 4 -85 4 C-85 3.67 -85 3.34 -85 3 C-83.9646109 2.99191315 -82.9292218 2.98382629 -81.86245728 2.97549438 C-72.12088159 2.89812264 -62.37944712 2.81040639 -52.6380558 2.71247292 C-47.62950045 2.66245514 -42.62096677 2.61612575 -37.61230469 2.578125 C-32.78171307 2.54134123 -27.95130031 2.49500048 -23.12086105 2.44193649 C-21.27484641 2.42335569 -19.42879338 2.40826146 -17.58272171 2.39665604 C-15.0036906 2.37985637 -12.42507243 2.35083733 -9.84619141 2.31884766 C-8.69281029 2.31560738 -8.69281029 2.31560738 -7.51612854 2.31230164 C-3.29918232 2.38590211 -3.29918232 2.38590211 0 0 Z " fill="#262532" transform="translate(342,296)"/>
<path d="M0 0 C3.88702791 3.78699411 7.46850333 7.75663024 11 11.875 C12.14180524 13.20062579 13.28373624 14.52614327 14.42578125 15.8515625 C15.01053223 16.5312207 15.5952832 17.21087891 16.19775391 17.91113281 C18.01457067 20.01688792 19.83979018 22.1150422 21.66796875 24.2109375 C22.25771484 24.88785645 22.84746094 25.56477539 23.45507812 26.26220703 C24.58934152 27.56366877 25.72471628 28.86416296 26.86132812 30.16357422 C29.07229541 32.70535436 31.12868996 35.19303493 33 38 C31.515 38.495 31.515 38.495 30 39 C29.773125 38.443125 29.54625 37.88625 29.3125 37.3125 C27.63283282 34.35308639 25.43248148 32.37591214 23 30 C22.09243279 28.92647765 21.19639243 27.84309773 20.3125 26.75 C18.2957678 23.98257806 18.2957678 23.98257806 16 23 C15.34 22.01 14.68 21.02 14 20 C13.236875 19.236875 12.47375 18.47375 11.6875 17.6875 C6.6371674 12.6371674 1.34181067 7.24577764 0 0 Z " fill="#1E1E29" transform="translate(330,385)"/>
<path d="M0 0 C3.85926712 1.54901777 6.02759159 3.97087607 8.75 7.0625 C9.54921875 7.96097656 10.3484375 8.85945313 11.171875 9.78515625 C13 12 13 12 13 13 C0.79 13 -11.42 13 -24 13 C-24 12.67 -24 12.34 -24 12 C-8.655 11.505 -8.655 11.505 7 11 C7 10.34 7 9.68 7 9 C5.47165147 7.76431395 3.94234618 6.52972509 2.40234375 5.30859375 C0.65976986 3.68251505 0.17525656 2.36596356 0 0 Z " fill="#242430" transform="translate(363,425)"/>
<path d="M0 0 C24.75 0.495 24.75 0.495 50 1 C50 1.33 50 1.66 50 2 C33.83 2.33 17.66 2.66 1 3 C0.67 2.01 0.34 1.02 0 0 Z " fill="#252530" transform="translate(310,325)"/>
<path d="M0 0 C1.0625 1.8125 1.0625 1.8125 2 4 C0.79180633 7.624581 0.19658087 7.40170957 -3 9 C-3.33 9.99 -3.66 10.98 -4 12 C-5.32303717 12.3721042 -6.65737935 12.70630173 -8 13 C-8.33 13.66 -8.66 14.32 -9 15 C-9.66 14.34 -10.32 13.68 -11 13 C-10.29875 12.34 -9.5975 11.68 -8.875 11 C-5.50583305 7.65014059 -2.77531275 3.84347436 0 0 Z " fill="#262532" transform="translate(394,301)"/>
<path d="M0 0 C3.22468896 3.12391743 6.29392978 6.36331966 9.3125 9.6875 C10.00988281 10.45449219 10.70726562 11.22148437 11.42578125 12.01171875 C13 14 13 14 13 16 C6.74590359 14.0890261 3.99619045 9.56435369 1 4 C0.3125 1.6875 0.3125 1.6875 0 0 Z " fill="#1F1F2A" transform="translate(330,385)"/>
<path d="M0 0 C2.24609375 1.953125 2.24609375 1.953125 4.4921875 3.90625 C5.95936421 5.19572458 5.95936421 5.19572458 8 5 C8.28875 5.928125 8.5775 6.85625 8.875 7.8125 C9.8875 11.09791667 9.8875 11.09791667 12 14 C11.01 14 10.02 14 9 14 C6.73828125 11.69921875 6.73828125 11.69921875 4.3125 8.6875 C3.50425781 7.70136719 2.69601563 6.71523438 1.86328125 5.69921875 C0 3 0 3 0 0 Z " fill="#1B1B27" transform="translate(206,309)"/>
<path d="M0 0 C0.433125 0.474375 0.86625 0.94875 1.3125 1.4375 C3.02309613 3.23686957 3.02309613 3.23686957 6 4 C7.16796875 5.5234375 7.16796875 5.5234375 8.1875 7.375 C8.53167969 7.98085938 8.87585938 8.58671875 9.23046875 9.2109375 C10 11 10 11 10 14 C8.33333333 12.33333333 6.66666667 10.66666667 5 9 C4.071875 8.154375 3.14375 7.30875 2.1875 6.4375 C0 4 0 4 0 0 Z " fill="#252430" transform="translate(233,340)"/>
<path d="M0 0 C1.32 0 2.64 0 4 0 C5.5 2.25 5.5 2.25 7 5 C8.29579647 6.36984198 9.61992749 7.7151049 11 9 C10.67 9.66 10.34 10.32 10 11 C6.8510285 9.63088196 4.9521513 8.1247864 2.75 5.5 C2.22921875 4.8915625 1.7084375 4.283125 1.171875 3.65625 C0 2 0 2 0 0 Z " fill="#21212C" transform="translate(192,189)"/>
<path d="M0 0 C2.66666667 2.66666667 5.33333333 5.33333333 8 8 C5 9 5 9 2.73828125 8.00390625 C1.93777344 7.52824219 1.13726562 7.05257813 0.3125 6.5625 C-0.49574219 6.08941406 -1.30398438 5.61632812 -2.13671875 5.12890625 C-2.75160156 4.75636719 -3.36648438 4.38382812 -4 4 C-2.68 2.68 -1.36 1.36 0 0 Z " fill="#1F1E2A" transform="translate(313,425)"/>
<path d="M0 0 C4.77135213 3.57851409 7.29076328 6.68572797 10 12 C9.01 12 8.02 12 7 12 C5.17578125 10.13671875 5.17578125 10.13671875 3.3125 7.6875 C2.68988281 6.88699219 2.06726563 6.08648437 1.42578125 5.26171875 C0 3 0 3 0 0 Z " fill="#21212C" transform="translate(374,397)"/>
<path d="M0 0 C3.45195767 1.4258086 5.1014256 3.09746334 7.25 6.125 C8.03117187 7.21167969 8.03117187 7.21167969 8.828125 8.3203125 C9.40820312 9.15175781 9.40820312 9.15175781 10 10 C9.34 10.66 8.68 11.32 8 12 C7.4225 11.071875 6.845 10.14375 6.25 9.1875 C4.24989605 6.00720854 4.24989605 6.00720854 1.75 4.3125 C1.1725 3.879375 0.595 3.44625 0 3 C0 2.01 0 1.02 0 0 Z " fill="#262530" transform="translate(442,410)"/>
<path d="M0 0 C3.26008643 3.16952847 6.22237877 6.39937989 9 10 C8.34 10.66 7.68 11.32 7 12 C5.821389 10.76125579 4.65747085 9.5085199 3.5 8.25 C2.8503125 7.55390625 2.200625 6.8578125 1.53125 6.140625 C0 4 0 4 0 0 Z " fill="#242530" transform="translate(301,352)"/>
<path d="M0 0 C0.66 0 1.32 0 2 0 C2.33 0.99 2.66 1.98 3 3 C5.08812458 4.45644757 5.08812458 4.45644757 7.5625 5.6875 C8.38878906 6.12449219 9.21507812 6.56148438 10.06640625 7.01171875 C11.02353516 7.50091797 11.02353516 7.50091797 12 8 C11.01 8.66 10.02 9.32 9 10 C7.49147143 8.90751403 5.99337169 7.80061501 4.5 6.6875 C3.24703125 5.76517578 3.24703125 5.76517578 1.96875 4.82421875 C1.3190625 4.22222656 0.669375 3.62023437 0 3 C0 2.01 0 1.02 0 0 Z " fill="#1D1D27" transform="translate(395,421)"/>
<path d="M0 0 C2.37948772 0.17625835 3.70225849 0.69719773 5.37890625 2.40234375 C6.62115486 3.90649092 7.81376056 5.45129851 9 7 C8.01 7.33 7.02 7.66 6 8 C4.99403703 7.0479279 3.99538437 6.08812654 3 5.125 C2.443125 4.59132813 1.88625 4.05765625 1.3125 3.5078125 C0 2 0 2 0 0 Z " fill="#2B2B37" transform="translate(298,417)"/>
<path d="M0 0 C3.26008643 3.16952847 6.22237877 6.39937989 9 10 C8.01 10.495 8.01 10.495 7 11 C6.01 10.34 5.02 9.68 4 9 C4 8.01 4 7.02 4 6 C2.68 5.34 1.36 4.68 0 4 C0 2.68 0 1.36 0 0 Z " fill="#1C1D29" transform="translate(397,357)"/>
<path d="M0 0 C-5.14285714 5.57142857 -5.14285714 5.57142857 -9 6 C-9.33 5.01 -9.66 4.02 -10 3 C-3.375 -1.125 -3.375 -1.125 0 0 Z " fill="#201F2B" transform="translate(383,317)"/>
<path d="M0 0 C0.99 0 1.98 0 3 0 C3.33 0.66 3.66 1.32 4 2 C4.66 1.67 5.32 1.34 6 1 C7.2077558 4.62326739 6.54311128 5.64146369 5 9 C2.67527795 6.14693203 1.2491742 3.45925163 0 0 Z " fill="#20202C" transform="translate(392,251)"/>
<path d="M0 0 C2 2 2 2 2.13525391 3.87939453 C2.08288574 4.62302246 2.03051758 5.36665039 1.9765625 6.1328125 C1.89921875 7.34130859 1.89921875 7.34130859 1.8203125 8.57421875 C1.75585938 9.41597656 1.69140625 10.25773437 1.625 11.125 C1.56828125 11.97449219 1.5115625 12.82398438 1.453125 13.69921875 C1.31149023 15.8001345 1.15695674 17.90017334 1 20 C0.67 20 0.34 20 0 20 C-0.1946838 17.22949974 -0.38102792 14.45886998 -0.5625 11.6875 C-0.61857422 10.90181641 -0.67464844 10.11613281 -0.73242188 9.30664062 C-0.78076172 8.54931641 -0.82910156 7.79199219 -0.87890625 7.01171875 C-0.9260376 6.31522217 -0.97316895 5.61872559 -1.02172852 4.90112305 C-1 3 -1 3 0 0 Z " fill="#3E4047" transform="translate(400,264)"/>
<path d="M0 0 C2.97246802 2.54782974 4.41535288 5.45340883 6 9 C6 9.66 6 10.32 6 11 C5.34 11 4.68 11 4 11 C4 10.34 4 9.68 4 9 C3.34 9 2.68 9 2 9 C1.01 6.36 0.02 3.72 -1 1 C-0.67 0.67 -0.34 0.34 0 0 Z " fill="#24242F" transform="translate(433,232)"/>
<path d="M0 0 C1.4370809 -0.05422947 2.87475462 -0.09289723 4.3125 -0.125 C5.11300781 -0.14820313 5.91351563 -0.17140625 6.73828125 -0.1953125 C9 0 9 0 12 2 C12 2.66 12 3.32 12 4 C10.1858073 3.71905418 8.37364999 3.42493567 6.5625 3.125 C5.04849609 2.88136719 5.04849609 2.88136719 3.50390625 2.6328125 C2.67761719 2.42398438 1.85132813 2.21515625 1 2 C0.67 1.34 0.34 0.68 0 0 Z " fill="#22222B" transform="translate(236,228)"/>
<path d="M0 0 C0.33 0 0.66 0 1 0 C1.144375 0.763125 1.28875 1.52625 1.4375 2.3125 C1.9632594 5.08172908 1.9632594 5.08172908 3 8 C2.91426773 10.06587115 2.76166465 12.12946525 2.5625 14.1875 C2.40974609 15.81751953 2.40974609 15.81751953 2.25390625 17.48046875 C2.12822266 18.72763672 2.12822266 18.72763672 2 20 C1.67 20 1.34 20 1 20 C0.67 13.4 0.34 6.8 0 0 Z " fill="#22222F" transform="translate(443,264)"/>
<path d="M0 0 C1.48199902 0.44909061 2.96055236 0.90956564 4.4375 1.375 C5.26121094 1.63023437 6.08492187 1.88546875 6.93359375 2.1484375 C9 3 9 3 10 5 C8.375 5.6875 8.375 5.6875 6 6 C2.75 4.5625 2.75 4.5625 0 3 C0 2.01 0 1.02 0 0 Z " fill="#23232E" transform="translate(226,222)"/>
<path d="M0 0 C0.90492188 0.38285156 1.80984375 0.76570312 2.7421875 1.16015625 C4.10730469 1.73056641 4.10730469 1.73056641 5.5 2.3125 C6.19867188 2.61285156 6.89734375 2.91320312 7.6171875 3.22265625 C6.6271875 3.88265625 5.6371875 4.54265625 4.6171875 5.22265625 C1.02885184 3.96359111 -1.67743421 2.92803454 -4.3828125 0.22265625 C-2.3828125 -0.77734375 -2.3828125 -0.77734375 0 0 Z " fill="#20202B" transform="translate(390.3828125,193.77734375)"/>
<path d="M0 0 C4.10958767 1.45044271 7.43258745 3.51110752 11 6 C10.34 6.66 9.68 7.32 9 8 C7.49460339 7.05016642 5.99579653 6.08988109 4.5 5.125 C3.6646875 4.59132812 2.829375 4.05765625 1.96875 3.5078125 C1.3190625 3.01023438 0.669375 2.51265625 0 2 C0 1.34 0 0.68 0 0 Z " fill="#20202B" transform="translate(398,198)"/>
<path d="M0 0 C2.93200474 2.85276137 5.64315404 5.65079784 8 9 C7.01 9.33 6.02 9.66 5 10 C4.54625 9.195625 4.0925 8.39125 3.625 7.5625 C2.25274335 4.91143428 2.25274335 4.91143428 0 4 C0 2.68 0 1.36 0 0 Z " fill="#2C2C36" transform="translate(310,362)"/>
<path d="M0 0 C2.93200474 2.85276137 5.64315404 5.65079784 8 9 C5.62051228 8.82374165 4.29774151 8.30280227 2.62109375 6.59765625 C1.37884514 5.09350908 0.18623944 3.54870149 -1 2 C-0.67 1.34 -0.34 0.68 0 0 Z " fill="#2A2A33" transform="translate(418,381)"/>
<path d="M0 0 C1.32 0.33 2.64 0.66 4 1 C4 1.66 4 2.32 4 3 C4.63474075 4.34882408 5.29848848 5.6846659 6 7 C4.125 6.75 4.125 6.75 2 6 C0.61504198 3.85331506 0 2.56128588 0 0 Z " fill="#292834" transform="translate(161,257)"/>
<path d="M0 0 C1.70884005 1.62339805 3.37446717 3.29319053 5 5 C5 5.66 5 6.32 5 7 C2.37812506 5.95125002 1.20628639 5.35068687 -0.25 2.875 C-0.4975 2.25625 -0.745 1.6375 -1 1 C-0.67 0.67 -0.34 0.34 0 0 Z " fill="#252530" transform="translate(435,401)"/>
<path d="M0 0 C1.0625 1.8125 1.0625 1.8125 2 4 C1.67 4.99 1.34 5.98 1 7 C-0.32 7 -1.64 7 -3 7 C-1.125 2.25 -1.125 2.25 0 0 Z " fill="#1E1D2A" transform="translate(394,301)"/>
<path d="M0 0 C2.1640625 0.2421875 2.1640625 0.2421875 4.625 0.875 C5.44226563 1.07867187 6.25953125 1.28234375 7.1015625 1.4921875 C8.04128906 1.74355469 8.04128906 1.74355469 9 2 C8.34 2.66 7.68 3.32 7 4 C4.8359375 3.7578125 4.8359375 3.7578125 2.375 3.125 C1.55773437 2.92132813 0.74046875 2.71765625 -0.1015625 2.5078125 C-0.72804688 2.34023437 -1.35453125 2.17265625 -2 2 C-1.34 1.34 -0.68 0.68 0 0 Z " fill="#2C2C36" transform="translate(366,232)"/>
<path d="M0 0 C1.16959987 0.97566112 2.33561177 1.955625 3.5 2.9375 C4.1496875 3.48277344 4.799375 4.02804687 5.46875 4.58984375 C5.9740625 5.05519531 6.479375 5.52054687 7 6 C7 6.33 7 6.66 7 7 C5.35 7 3.7 7 2 7 C1.34 4.69 0.68 2.38 0 0 Z " fill="#23232D" transform="translate(369,431)"/>
<path d="M0 0 C2.64752004 2.57784846 4.94432065 4.91648098 7 8 C6.34 8.66 5.68 9.32 5 10 C0.57142857 3.71428571 0.57142857 3.71428571 0 0 Z " fill="#2D2D37" transform="translate(330,385)"/>
<path d="M0 0 C1.65 1.32 3.3 2.64 5 4 C4.67 4.99 4.34 5.98 4 7 C2.35 5.35 0.7 3.7 -1 2 C-0.67 1.34 -0.34 0.68 0 0 Z " fill="#282831" transform="translate(265,377)"/>
<path d="M0 0 C2.64 0.99 5.28 1.98 8 3 C7.67 3.66 7.34 4.32 7 5 C4.03 4.01 1.06 3.02 -2 2 C-1.34 1.34 -0.68 0.68 0 0 Z " fill="#21212C" transform="translate(302,259)"/>
<path d="M0 0 C3.16115776 1.36983503 3.9927092 1.9890638 6 5 C5.34 5.66 4.68 6.32 4 7 C4 6.34 4 5.68 4 5 C3.34 5 2.68 5 2 5 C2 4.34 2 3.68 2 3 C1.34 3 0.68 3 0 3 C0 2.01 0 1.02 0 0 Z " fill="#1F202B" transform="translate(324,380)"/>
<path d="M0 0 C4.67692308 1.47692308 4.67692308 1.47692308 6.3125 4.125 C6.539375 4.74375 6.76625 5.3625 7 6 C5.1875 5.8125 5.1875 5.8125 3 5 C1.25 2.4375 1.25 2.4375 0 0 Z " fill="#21212D" transform="translate(320,337)"/>
<path d="M0 0 C2.375 0.3125 2.375 0.3125 5 1 C5.66 1.99 6.32 2.98 7 4 C6.01 4.33 5.02 4.66 4 5 C1.8125 3.6875 1.8125 3.6875 0 2 C0 1.34 0 0.68 0 0 Z " fill="#21212D" transform="translate(376,236)"/>
<path d="M0 0 C2.475 0.99 2.475 0.99 5 2 C5 3.32 5 4.64 5 6 C3.31237149 4.3545622 1.6459651 2.68711423 0 1 C0 0.67 0 0.34 0 0 Z " fill="#252631" transform="translate(193,296)"/>
</svg>
